<?xml version="1.0" encoding="utf-8"?>
<!-- Generator: Adobe Illustrator 18.0.0, SVG Export Plug-In . SVG Version: 6.00 Build 0)  -->
<!DOCTYPE svg PUBLIC "-//W3C//DTD SVG 1.1//EN" "http://www.w3.org/Graphics/SVG/1.1/DTD/svg11.dtd">
<svg version="1.1" id="Layer_1" xmlns="http://www.w3.org/2000/svg" xmlns:xlink="http://www.w3.org/1999/xlink" x="0px" y="0px"
	 viewBox="0 0 512 512" enable-background="new 0 0 512 512" xml:space="preserve">
<g id="linkedin_2_">
	<path d="M120.8,164.6H18.9c-5,0-9.1,4.1-9.1,9.1v329.2c0,5,4.1,9.1,9.1,9.1h101.9c5,0,9.1-4.1,9.1-9.1V173.7
		C129.9,168.7,125.9,164.6,120.8,164.6z"/>
	<path d="M69.4,0C31.1,0,0,31.3,0,69.8c0,38.5,31.1,69.9,69.4,69.9c38.3,0,69.4-31.3,69.4-69.9C138.8,31.3,107.6,0,69.4,0z"/>
	<path d="M502.6,233.8c-6.1-17.3-15.2-32.2-26.9-44.2c-22.4-22.9-54.5-35.1-92.6-35.1c-30.3,0-58.2,9.9-80.8,28.6l-9.4,7.8v-16.7
		c-0.2-5.8-4.2-9.6-9.1-9.6H186c-5,0-9.1,4.1-9.1,9.1v329.2c0,5,4.1,9.1,9.1,9.1h97.8c5,0,9.1-4.1,9.1-9.1V330.1
		c0-20.8,4.8-37.6,13.7-48.5c8.9-10.8,22.1-16.2,39.3-16.2c11.5,0,46.4,0,46.4,64.7v172.8c0,5,4.1,9.1,9.1,9.1h101.4
		c5,0,9.1-4.1,9.1-9.1V294.5C512,271.9,508.8,251.5,502.6,233.8z"/>
</g>
</svg>
