<?xml version="1.0" encoding="utf-8"?>
<!-- Generator: Adobe Illustrator 16.0.0, SVG Export Plug-In . SVG Version: 6.00 Build 0)  -->
<!DOCTYPE svg PUBLIC "-//W3C//DTD SVG 1.1//EN" "http://www.w3.org/Graphics/SVG/1.1/DTD/svg11.dtd">
<svg version="1.1" id="Layer_1" xmlns="http://www.w3.org/2000/svg" xmlns:xlink="http://www.w3.org/1999/xlink" x="0px" y="0px"
	 width="512px" height="512px" viewBox="0 0 512 512" enable-background="new 0 0 512 512" xml:space="preserve">
<g id="tag_2_2_">
	<path d="M511.969,9.035c-0.031-2.297-0.969-4.547-2.641-6.234c-1.703-1.656-3.938-2.625-6.312-2.656L250.875,0.113
		c-2.266,0.062-4.516,1.031-6.172,2.672L7.016,240.473C2.5,245.004,0,251.02,0,257.395c0,6.406,2.5,12.406,7.016,16.938
		l230.75,230.781c9.094,9.031,24.844,9.031,33.875,0l237.703-237.688c1.641-1.688,2.578-3.906,2.656-6.266v-0.672L511.969,9.035z
		 M254.703,496.27L15.859,257.426L254.938,18.332l238.828,0.031l0.016,238.844L254.703,496.27z"/>
	<path d="M381.609,76.895c-14.312,0-27.781,5.578-37.906,15.688c-20.891,20.906-20.891,54.938,0,75.828
		c20.25,20.266,55.578,20.266,75.812,0c20.891-20.891,20.891-54.922,0-75.828C409.406,82.473,395.938,76.895,381.609,76.895z
		 M406.641,155.535c-6.672,6.672-15.562,10.359-25.031,10.359c-9.453,0-18.359-3.688-25.016-10.359
		c-13.797-13.797-13.797-36.266,0-50.047c13.328-13.359,36.719-13.359,50.047,0C420.438,119.27,420.438,141.738,406.641,155.535z"/>
	<path d="M261.969,145.238c-1.703-1.703-3.984-2.656-6.438-2.656c-2.422,0-4.703,0.953-6.438,2.656l-136.984,137
		c-3.547,3.547-3.547,9.328,0,12.875c3.453,3.422,9.453,3.422,12.906,0l136.969-136.969
		C265.516,154.582,265.516,148.801,261.969,145.238z"/>
	<path d="M317.094,204.145c0-2.438-0.953-4.734-2.688-6.469c-1.703-1.703-3.984-2.656-6.422-2.656s-4.719,0.953-6.453,2.688
		L164.562,334.676c-1.719,1.719-2.672,4-2.672,6.438s0.938,4.719,2.672,6.453c3.453,3.422,9.438,3.438,12.891,0l136.984-136.984
		C316.156,208.863,317.094,206.582,317.094,204.145z"/>
	<path d="M360.422,247.457c-2.422,0-4.703,0.969-6.438,2.688L217,387.113c-3.531,3.547-3.531,9.344,0.016,12.906
		c3.422,3.422,9.422,3.453,12.875,0l137-137c3.547-3.531,3.547-9.312,0-12.875C365.141,248.426,362.859,247.457,360.422,247.457z"/>
</g>
</svg>
