<?xml version="1.0" encoding="utf-8"?>
<!-- Generator: Adobe Illustrator 16.0.0, SVG Export Plug-In . SVG Version: 6.00 Build 0)  -->
<!DOCTYPE svg PUBLIC "-//W3C//DTD SVG 1.1//EN" "http://www.w3.org/Graphics/SVG/1.1/DTD/svg11.dtd">
<svg version="1.1" id="Layer_1" xmlns="http://www.w3.org/2000/svg" xmlns:xlink="http://www.w3.org/1999/xlink" x="0px" y="0px"
	 width="512px" height="512px" viewBox="0 0 512 512" enable-background="new 0 0 512 512" xml:space="preserve">
<g id="time_1_3_">
	<path d="M503.146,189.75c-17.688-66.047-60.047-121.234-119.25-155.422C344.974,11.891,300.817,0,256.161,0
		C164.88,0,79.849,49.062,34.255,128c-70.547,122.234-28.531,279.078,93.672,349.656C166.849,500.125,211.021,512,255.677,512
		c91.266,0,176.297-49.062,221.906-128.031C511.771,324.75,520.833,255.781,503.146,189.75z M491.911,285.391
		c-3.922,31.547-14.047,61.672-30.109,89.469c-10.812,18.734-24.016,35.797-39.234,50.766c-14.812,14.562-31.469,27.094-49.5,37.281
		c-35.766,20.203-76.359,30.875-117.391,30.875c-20.422,0-40.719-2.641-60.391-7.844c-20.234-5.344-39.844-13.438-58.234-24.062
		c-27.797-16.031-51.625-37.031-70.797-62.422c-18.547-24.547-32-52.109-39.969-81.938c-8.016-29.828-10.141-60.453-6.359-90.922
		c3.906-31.547,14.031-61.641,30.094-89.469c10.812-18.719,24.016-35.812,39.25-50.766c14.75-14.516,31.406-27.078,49.5-37.281
		c53.469-30.203,118.469-38.703,177.766-23.047c20.328,5.375,39.938,13.469,58.25,24.062c27.828,16.062,51.641,37.078,70.797,62.438
		c18.547,24.562,31.984,52.109,39.969,81.922C493.552,224.281,495.692,254.875,491.911,285.391z"/>
	<path d="M410.036,334.469l-145-83.719V83.281c0-5-4.094-9.094-9.125-9.094c-5.016,0-9.109,4.094-9.109,9.094l0.031,172.031
		c-0.25,3.531,1.484,6.828,4.531,8.578l149.562,86.344c4.234,2.438,10.031,0.859,12.438-3.328c1.219-2.109,1.531-4.562,0.906-6.906
		C413.646,337.641,412.146,335.688,410.036,334.469z"/>
</g>
</svg>
