<svg version="1.1" id="Layer_1" xmlns="http://www.w3.org/2000/svg" xmlns:xlink="http://www.w3.org/1999/xlink" x="0px" y="0px"
	 viewBox="0 0 40.9 40.9" enable-background="new 0 0 40.9 40.9" xml:space="preserve">
<path fill-rule="evenodd" clip-rule="evenodd" fill="#ffffff" d="M29,20.4L40.5,9c0.5-0.5,0.5-1.4,0-1.9l-6.7-6.7
	c-0.5-0.5-1.4-0.5-1.9,0L20.4,11.8L9,0.4c-0.5-0.5-1.4-0.5-1.9,0L0.4,7.1c-0.5,0.5-0.5,1.4,0,1.9l11.4,11.4L0.4,31.9
	c-0.5,0.5-0.5,1.4,0,1.9l6.7,6.7C7.6,41,8.5,41,9,40.5L20.4,29l11.4,11.4c0.5,0.5,1.4,0.5,1.9,0l6.7-6.7c0.5-0.5,0.5-1.4,0-1.9
	L29,20.4z"/>
</svg>
