<svg version="1.1" id="svg-menu" xmlns="http://www.w3.org/2000/svg" xmlns:xlink="http://www.w3.org/1999/xlink" x="0px" y="0px"
	 viewBox="0 0 35 41" enable-background="new 0 0 35 41" xml:space="preserve">
<path fill-rule="evenodd" clip-rule="evenodd" fill="#ffffff" d="M0,33c0-0.6,0.4-1,1-1h33c0.6,0,1,0.4,1,1v7c0,0.6-0.4,1-1,1H1
	c-0.6,0-1-0.4-1-1V33z M9,17c0-0.6,0.5-1,1-1h24c0.6,0,1,0.4,1,1v7c0,0.6-0.5,1-1,1H10c-0.6,0-1-0.4-1-1V17z M0,1c0-0.6,0.4-1,1-1
	h33c0.6,0,1,0.4,1,1v7c0,0.6-0.4,1-1,1H1C0.5,9,0,8.6,0,8V1z"/>
</svg>
